<svg width="173" height="248" viewBox="0 0 173 248" fill="none" xmlns="http://www.w3.org/2000/svg">
<rect width="172.5" height="245.971" transform="translate(0 0.968536)" fill="black"/>
<path d="M0 0.968536H172.5V190.94H0V0.968536Z" fill="#D9D9D9"/>
<rect y="185.561" width="172.5" height="61.3786" fill="#EC1D24"/>
<path d="M23.5811 209.987V219.94H22.3164L18.3311 212.263V219.94H17.0732V209.987H18.3311L22.3369 217.684V209.987H23.5811ZM29.1045 210.869L26.3838 219.94H25.0986L28.3047 209.987H29.1113L29.1045 210.869ZM31.3057 219.94L28.585 210.869L28.5713 209.987H29.3848L32.5908 219.94H31.3057ZM31.3057 216.255V217.336H26.5068V216.255H31.3057ZM34.3545 209.987H35.5713L38.1758 218.101L40.7734 209.987H41.9902L38.6475 219.94H37.6904L34.3545 209.987ZM33.958 209.987H35.0244L35.209 216.057V219.94H33.958V209.987ZM41.3135 209.987H42.3799V219.94H41.1289V216.057L41.3135 209.987ZM49.8926 218.867V219.94H45.5723V218.867H49.8926ZM45.7979 209.987V219.94H44.54V209.987H45.7979ZM49.3115 214.266V215.339H45.5723V214.266H49.3115ZM49.8242 209.987V211.067H45.5723V209.987H49.8242Z" fill="white"/>
<path d="M147.5 209.521L148.019 208.666L147.5 208.351L146.981 208.666L147.5 209.521ZM150.5 211.342L149.981 212.197L150.5 212.512L151.019 212.197L150.5 211.342ZM144.5 211.342L143.981 210.487L143.5 210.779V211.342H144.5ZM144.5 215.243H143.5V215.705L143.851 216.004L144.5 215.243ZM150.5 220.359L149.851 221.12L150.5 221.673L151.149 221.12L150.5 220.359ZM156.5 215.243L157.149 216.004L157.5 215.705V215.243H156.5ZM156.5 211.342H157.5V210.779L157.019 210.487L156.5 211.342ZM153.5 209.521L154.019 208.666L153.5 208.351L152.981 208.666L153.5 209.521ZM146.981 210.376L149.981 212.197L151.019 210.487L148.019 208.666L146.981 210.376ZM145.019 212.197L148.019 210.376L146.981 208.666L143.981 210.487L145.019 212.197ZM145.5 215.243V211.342H143.5V215.243H145.5ZM151.149 219.598L145.149 214.483L143.851 216.004L149.851 221.12L151.149 219.598ZM151.149 221.12L157.149 216.004L155.851 214.483L149.851 219.598L151.149 221.12ZM157.5 215.243V211.342H155.5V215.243H157.5ZM157.019 210.487L154.019 208.666L152.981 210.376L155.981 212.197L157.019 210.487ZM152.981 208.666L149.981 210.487L151.019 212.197L154.019 210.376L152.981 208.666Z" fill="white"/>
<path d="M160.177 247.292H172.824V234.645L160.177 247.292Z" fill="white"/>
</svg>
