<svg width="173" height="247" viewBox="0 0 173 247" fill="none" xmlns="http://www.w3.org/2000/svg">
<rect width="172.5" height="245.971" transform="translate(0 -0.00292969)" fill="black"/>
<path d="M0 -0.00292969H172.5V189.969H0V-0.00292969Z" fill="#D9D9D9"/>
<rect y="184.59" width="172.5" height="5.37857" fill="#EC1D24"/>
<path d="M23.5811 209.015V218.969H22.3164L18.3311 211.292V218.969H17.0732V209.015H18.3311L22.3369 216.713V209.015H23.5811ZM29.1045 209.897L26.3838 218.969H25.0986L28.3047 209.015H29.1113L29.1045 209.897ZM31.3057 218.969L28.585 209.897L28.5713 209.015H29.3848L32.5908 218.969H31.3057ZM31.3057 215.284V216.364H26.5068V215.284H31.3057ZM34.3545 209.015H35.5713L38.1758 217.13L40.7734 209.015H41.9902L38.6475 218.969H37.6904L34.3545 209.015ZM33.958 209.015H35.0244L35.209 215.086V218.969H33.958V209.015ZM41.3135 209.015H42.3799V218.969H41.1289V215.086L41.3135 209.015ZM49.8926 217.895V218.969H45.5723V217.895H49.8926ZM45.7979 209.015V218.969H44.54V209.015H45.7979ZM49.3115 213.295V214.368H45.5723V213.295H49.3115ZM49.8242 209.015V210.095H45.5723V209.015H49.8242Z" fill="white"/>
<path d="M147.5 208.549L148.019 207.695L147.5 207.38L146.981 207.695L147.5 208.549ZM150.5 210.37L149.981 211.225L150.5 211.54L151.019 211.225L150.5 210.37ZM144.5 210.37L143.981 209.515L143.5 209.807V210.37H144.5ZM144.5 214.272H143.5V214.734L143.851 215.033L144.5 214.272ZM150.5 219.388L149.851 220.149L150.5 220.702L151.149 220.149L150.5 219.388ZM156.5 214.272L157.149 215.033L157.5 214.734V214.272H156.5ZM156.5 210.37H157.5V209.807L157.019 209.515L156.5 210.37ZM153.5 208.549L154.019 207.695L153.5 207.38L152.981 207.695L153.5 208.549ZM146.981 209.404L149.981 211.225L151.019 209.515L148.019 207.695L146.981 209.404ZM145.019 211.225L148.019 209.404L146.981 207.695L143.981 209.515L145.019 211.225ZM145.5 214.272V210.37H143.5V214.272H145.5ZM151.149 218.627L145.149 213.511L143.851 215.033L149.851 220.149L151.149 218.627ZM151.149 220.149L157.149 215.033L155.851 213.511L149.851 218.627L151.149 220.149ZM157.5 214.272V210.37H155.5V214.272H157.5ZM157.019 209.515L154.019 207.695L152.981 209.404L155.981 211.225L157.019 209.515ZM152.981 207.695L149.981 209.515L151.019 211.225L154.019 209.404L152.981 207.695Z" fill="white"/>
<path d="M160.071 246.397H172.929V233.54L160.071 246.397Z" fill="white"/>
</svg>
