<svg width="173" height="248" viewBox="0 0 173 248" fill="none" xmlns="http://www.w3.org/2000/svg">
<rect width="172.5" height="245.971" transform="translate(0 0.911499)" fill="black"/>
<path d="M0 0.911499H172.5V190.883H0V0.911499Z" fill="#D9D9D9"/>
<rect y="185.504" width="172.5" height="61.3786" fill="#EC1D24"/>
<path d="M23.5811 209.93V219.883H22.3164L18.3311 212.206V219.883H17.0732V209.93H18.3311L22.3369 217.627V209.93H23.5811ZM29.1045 210.812L26.3838 219.883H25.0986L28.3047 209.93H29.1113L29.1045 210.812ZM31.3057 219.883L28.585 210.812L28.5713 209.93H29.3848L32.5908 219.883H31.3057ZM31.3057 216.198V217.278H26.5068V216.198H31.3057ZM34.3545 209.93H35.5713L38.1758 218.044L40.7734 209.93H41.9902L38.6475 219.883H37.6904L34.3545 209.93ZM33.958 209.93H35.0244L35.209 216V219.883H33.958V209.93ZM41.3135 209.93H42.3799V219.883H41.1289V216L41.3135 209.93ZM49.8926 218.81V219.883H45.5723V218.81H49.8926ZM45.7979 209.93V219.883H44.54V209.93H45.7979ZM49.3115 214.209V215.282H45.5723V214.209H49.3115ZM49.8242 209.93V211.01H45.5723V209.93H49.8242Z" fill="white"/>
<path fill-rule="evenodd" clip-rule="evenodd" d="M150.5 211.285L147.5 209.464L144.5 211.285V215.186L150.5 220.302L156.5 215.186V211.285L153.5 209.464L150.5 211.285Z" fill="white"/>
<path d="M160.177 247.235H172.824V234.588L160.177 247.235Z" fill="white"/>
</svg>
